<?xml version="1.0" encoding="iso-8859-1"?>
<!-- Generator: Adobe Illustrator 17.1.0, SVG Export Plug-In . SVG Version: 6.00 Build 0)  -->
<!DOCTYPE svg PUBLIC "-//W3C//DTD SVG 1.1//EN" "http://www.w3.org/Graphics/SVG/1.1/DTD/svg11.dtd">
<svg version="1.1" id="&#x5716;&#x5C64;_1" xmlns="http://www.w3.org/2000/svg" xmlns:xlink="http://www.w3.org/1999/xlink" x="0px"
	 y="0px" viewBox="0 0 378.915 90.797" style="enable-background:new 0 0 378.915 90.797;" xml:space="preserve">
<g>
	<g>
		<path style="fill:#3D9BD5;" d="M11.165,12.192l3.799,41.667h0.229l21.292-41.667H47.19l5.41,41.667h0.346l20.717-41.667h11.28
			L56.167,66.749H45.119l-5.524-41.32h-0.232l-21.521,41.32H6.791L0,12.192H11.165z"/>
		<path style="fill:#3D9BD5;" d="M91.956,42.693c-0.077,0.386-0.118,0.711-0.118,0.98c0,0.269,0,0.556,0,0.863
			c0,2.148,0.405,4.124,1.209,5.926c0.807,1.805,1.916,3.379,3.338,4.72c1.419,1.345,3.107,2.38,5.063,3.107
			c1.957,0.733,4.046,1.094,6.275,1.094c3.913,0,7.267-0.785,10.071-2.359c2.798-1.574,5.159-3.549,7.076-5.929l6.331,5.985
			c-3.221,3.685-6.906,6.467-11.048,8.346c-4.145,1.879-8.634,2.819-13.468,2.819c-3.607,0-6.961-0.538-10.071-1.611
			c-3.107-1.076-5.793-2.649-8.056-4.72c-2.263-2.071-4.028-4.603-5.295-7.595c-1.264-2.992-1.898-6.408-1.898-10.244
			c0-4.526,0.807-8.822,2.417-12.89c1.611-4.068,3.836-7.614,6.674-10.646c2.841-3.033,6.217-5.428,10.13-7.193
			c3.913-1.765,8.133-2.649,12.662-2.649c6.98,0,12.504,1.901,16.572,5.697c4.068,3.799,6.102,9.113,6.102,15.941
			c0,1.076-0.099,2.631-0.288,4.662c-0.195,2.034-0.482,3.932-0.865,5.697H91.956z M125.678,34.866
			c0.074-0.535,0.133-1.11,0.173-1.725c0.037-0.615,0.056-1.19,0.056-1.728c0-3.527-1.15-6.464-3.453-8.804
			c-2.3-2.34-5.638-3.512-10.012-3.512c-2.609,0-4.989,0.461-7.134,1.382c-2.152,0.921-4.049,2.111-5.697,3.567
			c-1.654,1.459-3.033,3.147-4.145,5.066c-1.113,1.917-1.898,3.836-2.359,5.753H125.678z"/>
		<path style="fill:#3D9BD5;" d="M160.884,49.009h0.247l25.733-36.72h12.253l-42.521,62.822c-1.471,2.452-2.9,4.637-4.288,6.556
			c-1.389,1.919-2.899,3.554-4.535,4.904c-2.526,2.084-5.568,3.732-8.824,3.968c-3.564,0.258-6.951,0.195-10.412,0.258l0-9.687
			c4.345,0.1,10.184,0.46,13.477-2.75c1.718-1.675,3.512-4.064,5.394-7.168l5.76-9.804L140.42,12.289h12.131L160.884,49.009z"/>
		<path style="fill:#3D9BD5;" d="M207.499,90.797h-16.98l13.796-78.323h16.133l-1.274,7.323h0.319
			c1.981-2.688,4.475-4.794,7.482-6.316c3.007-1.519,6.277-2.28,9.817-2.28c3.466,0,6.579,0.567,9.341,1.699
			c2.759,1.132,5.094,2.705,7.003,4.72c1.91,2.018,3.361,4.424,4.352,7.217c0.989,2.796,1.485,5.821,1.485,9.076
			c0,4.529-0.727,8.791-2.175,12.787c-1.451,3.999-3.486,7.482-6.103,10.455c-2.62,2.973-5.715,5.325-9.286,7.058
			c-3.574,1.733-7.482,2.6-11.729,2.6c-3.891,0-7.251-0.727-10.082-2.175c-2.83-1.448-4.954-3.412-6.368-5.889h-0.211
			L207.499,90.797z M241.931,34.039c-0.076-0.591-0.185-1.174-0.326-1.742c-0.716-2.883-2.871-5.088-5.611-6.213
			c-5.442-2.236-11.528,0.726-14.642,5.346c-4.996,7.41-3.778,21.273,7.663,20.92C237.97,52.073,242.983,42.182,241.931,34.039z"/>
		<path style="fill:#3D9BD5;" d="M291.298,15.389c5.117-1.582,14.562-1.41,14.986-1.271l-2.589,14.672
			c-4.674-0.748-12.3,1.236-15.676,3.599c-3.653,2.557-5.141,5.005-5.67,8l-4.777,25.681h-16.98l7.534-41.921
			c0.282-1.345,0.584-3.078,0.904-5.202c0.319-2.121,0.547-4.033,0.69-5.729h16.133c-0.041,0.521-0.1,0.896-0.171,1.566
			c-0.071,0.675-0.331,2.944-0.403,3.44C285.278,18.224,288.52,16.248,291.298,15.389z"/>
		<path style="fill:#3D9BD5;" d="M331.389,66.811c-3.822,0-7.377-0.53-10.666-1.59c-3.289-1.063-6.123-2.6-8.491-4.618
			c-2.371-2.015-4.244-4.458-5.624-7.323c-1.38-2.865-2.069-6.103-2.069-9.711c0-4.387,0.741-8.56,2.229-12.525
			c1.485-3.959,3.623-7.428,6.419-10.398c2.796-2.973,6.174-5.342,10.136-7.112c3.962-1.767,8.454-2.654,13.479-2.654
			c3.891,0,7.499,0.53,10.826,1.593c3.324,1.06,6.188,2.6,8.597,4.615c2.403,2.018,4.298,4.458,5.678,7.323
			c1.38,2.868,2.069,6.103,2.069,9.711c0,4.458-0.744,8.668-2.229,12.63c-1.488,3.965-3.646,7.428-6.476,10.401
			c-2.83,2.973-6.245,5.325-10.241,7.058C341.029,65.944,336.483,66.811,331.389,66.811z M347.203,35.927
			c0-3.184-0.975-5.838-2.919-7.958c-1.947-2.124-4.689-3.184-8.226-3.184c-2.266,0-4.316,0.459-6.154,1.38
			c-1.841,0.921-3.398,2.158-4.672,3.714c-1.274,1.556-2.263,3.361-2.97,5.413c-0.71,2.052-1.063,4.21-1.063,6.473
			c0,3.184,0.955,5.82,2.867,7.907c1.91,2.087,4.632,3.13,8.172,3.13c2.263,0,4.313-0.439,6.154-1.326
			c1.839-0.884,3.415-2.104,4.723-3.663c1.308-1.554,2.317-3.358,3.024-5.41C346.847,40.351,347.203,38.193,347.203,35.927z"/>
	</g>
	<g>
		<path style="fill:#3D9BD5;" d="M371.903,0c1.202,0,2.355,0.301,3.46,0.902c1.105,0.601,1.974,1.463,2.605,2.587
			c0.631,1.123,0.947,2.298,0.947,3.524c0,1.221-0.31,2.385-0.93,3.493c-0.619,1.108-1.482,1.971-2.591,2.591
			c-1.107,0.619-2.271,0.929-3.492,0.929s-2.386-0.31-3.493-0.929c-1.107-0.62-1.972-1.483-2.591-2.591
			c-0.619-1.108-0.93-2.272-0.93-3.493c0-1.227,0.316-2.401,0.948-3.524c0.632-1.123,1.5-1.985,2.604-2.587
			C369.546,0.301,370.699,0,371.903,0z M371.911,1.373c-0.965,0-1.889,0.241-2.774,0.724c-0.885,0.482-1.582,1.175-2.092,2.078
			c-0.51,0.903-0.765,1.85-0.765,2.838c0,0.983,0.249,1.92,0.746,2.811c0.498,0.891,1.192,1.587,2.083,2.087
			c0.892,0.5,1.825,0.75,2.802,0.75c0.982,0,1.918-0.25,2.806-0.75c0.889-0.501,1.583-1.196,2.083-2.087
			c0.501-0.891,0.751-1.828,0.751-2.811c0-0.988-0.255-1.935-0.765-2.838c-0.51-0.903-1.208-1.596-2.097-2.078
			C373.802,1.614,372.875,1.373,371.911,1.373z M368.735,10.767V3.323h1.511c1.416,0,2.209,0.006,2.38,0.019
			c0.501,0.043,0.89,0.142,1.168,0.297c0.277,0.156,0.509,0.394,0.695,0.714c0.187,0.32,0.279,0.676,0.279,1.066
			c0,0.537-0.176,0.997-0.526,1.378c-0.352,0.381-0.844,0.618-1.479,0.709c0.226,0.086,0.4,0.179,0.522,0.279
			c0.122,0.101,0.29,0.292,0.504,0.572c0.055,0.073,0.238,0.375,0.549,0.906l0.879,1.502h-1.867l-0.623-1.208
			c-0.421-0.811-0.769-1.323-1.043-1.534c-0.275-0.21-0.623-0.315-1.044-0.315h-0.393v3.058H368.735z M370.245,6.537h0.613
			c0.873,0,1.414-0.034,1.625-0.101c0.211-0.067,0.377-0.185,0.499-0.352c0.122-0.168,0.183-0.358,0.183-0.572
			c0-0.207-0.06-0.393-0.178-0.554c-0.119-0.162-0.289-0.278-0.509-0.348c-0.22-0.07-0.76-0.105-1.62-0.105h-0.613V6.537z"/>
	</g>
</g>
</svg>
