<?xml version="1.0" encoding="UTF-8" standalone="no"?>
<svg width="434px" height="100px" viewBox="0 0 434 100" version="1.1" xmlns="http://www.w3.org/2000/svg" xmlns:xlink="http://www.w3.org/1999/xlink">
    <!-- Generator: Sketch 3.8.3 (29802) - http://www.bohemiancoding.com/sketch -->
    <title>Group</title>
    <desc>Created with Sketch.</desc>
    <defs></defs>
    <g id="Page-1" stroke="none" stroke-width="1" fill="none" fill-rule="evenodd">
        <g id="Group" fill="#FFFFFF">
            <path d="M143.766995,38.3106011 C143.85224,37.722623 143.92,37.090929 143.965902,36.4155191 C144.007432,35.7401093 144.02929,35.1084153 144.02929,34.5160656 C144.02929,30.6406557 142.713443,27.4144262 140.079563,24.8439344 C137.447869,22.2712568 133.62929,20.9838251 128.626011,20.9838251 C125.640219,20.9838251 122.918907,21.490929 120.464262,22.5029508 C118.00306,23.5149727 115.830383,24.8220765 113.94623,26.4220765 C112.055519,28.0264481 110.477377,29.88 109.205246,31.9892896 C107.930929,34.0963934 107.034754,36.2056831 106.507978,38.3106011 L143.766995,38.3106011 Z M105.192131,46.911694 C105.102514,47.3357377 105.056612,47.6920219 105.056612,47.9871038 L105.056612,48.9357377 C105.056612,51.2963934 105.52,53.4668852 106.440219,55.4472131 C107.362623,57.4297268 108.632568,59.1586885 110.258798,60.6340984 C111.882842,62.1095082 113.812896,63.248306 116.051148,64.0461202 C118.289399,64.8526776 120.67847,65.248306 123.22929,65.248306 C127.705792,65.248306 131.541858,64.3871038 134.750601,62.6581421 C137.950601,60.9291803 140.65224,58.7586885 142.84459,56.1422951 L150.08612,62.7193443 C146.400874,66.7674317 142.186667,69.8231694 137.447869,71.8887432 C132.706885,73.9543169 127.572459,74.9860109 122.040219,74.9860109 C117.913443,74.9860109 114.077377,74.395847 110.521093,73.2177049 C106.966995,72.0351913 103.89377,70.3062295 101.305792,68.0308197 C98.7178142,65.7554098 96.6981421,62.9728962 95.2489617,59.6854645 C93.8019672,56.3980328 93.0762842,52.6450273 93.0762842,48.4286339 C93.0762842,43.4559563 93.9986885,38.7346448 95.8413115,34.2646995 C97.6839344,29.7947541 100.230383,25.8996721 103.476284,22.5685246 C106.726557,19.2351913 110.586667,16.6034973 115.063169,14.6646995 C119.541858,12.7237158 124.368087,11.753224 129.548415,11.753224 C137.533115,11.753224 143.85224,13.8428415 148.505792,18.0133333 C153.159344,22.1881967 155.485027,28.0264481 155.485027,35.5280874 C155.485027,36.7106011 155.373552,38.4198907 155.157158,40.6515847 C154.934208,42.8854645 154.606339,44.9707104 154.166995,46.911694 L105.192131,46.911694 Z" id="Fill-2"></path>
            <path d="M184.040219,53.8507104 L184.322186,53.8507104 L213.760437,13.5031694 L227.775738,13.5031694 L179.135301,82.5304918 C177.45224,85.2255738 175.817268,87.6255738 174.228197,89.7348634 C172.641311,91.8419672 170.91235,93.6408743 169.041311,95.1228415 C166.151694,97.4135519 162.671913,99.223388 158.947322,99.4834973 C154.868634,99.7654645 150.99541,99.6977049 147.034754,99.7654645 L147.03694,89.1228415 C152.005246,89.2321311 158.685027,89.6277596 162.453333,86.0998907 C164.418361,84.2594536 166.47082,81.6343169 168.623825,78.2244809 L175.211803,67.4507104 L160.630383,13.5031694 L174.507978,13.5031694 L184.040219,53.8507104 Z" id="Fill-4"></path>
            <path d="M276.751694,37.4017486 C276.664262,36.7525683 276.539672,36.1121311 276.377923,35.4869945 C275.558251,32.3197814 273.094863,29.8979235 269.960437,28.660765 C263.735301,26.2039344 256.773552,29.4585792 253.21071,34.5339891 C247.494863,42.6782514 248.889399,57.9088525 261.975738,57.5197814 C272.222732,57.2159563 277.956066,46.3481967 276.751694,37.4017486 L276.751694,37.4017486 Z M237.363716,99.766776 L217.940765,99.766776 L233.722186,13.7055738 L252.176831,13.7055738 L250.721093,21.7514754 L251.08612,21.7514754 C253.352787,18.7984699 256.205246,16.4837158 259.645683,14.8115847 C263.083934,13.1416393 266.823825,12.3066667 270.874098,12.3066667 C274.839126,12.3066667 278.399781,12.9296175 281.560437,14.1733333 C284.716721,15.4170492 287.385574,17.1460109 289.571366,19.3602186 C291.754973,21.576612 293.416175,24.219235 294.550601,27.2902732 C295.680656,30.3613115 296.248962,33.6837158 296.248962,37.2618579 C296.248962,42.2389071 295.418361,46.9208743 293.76153,51.3121311 C292.100328,55.7055738 289.772459,59.5328962 286.780109,62.8006557 C283.783388,66.0662295 280.242404,68.6498361 276.157158,70.5536612 C272.067541,72.4596721 267.597596,73.4104918 262.738579,73.4104918 C258.288306,73.4104918 254.443497,72.6126776 251.206339,71.0214208 C247.96918,69.4301639 245.538579,67.2727869 243.921093,64.5514754 L243.680656,64.5514754 L237.363716,99.766776 Z" id="Fill-6"></path>
            <path d="M333.225137,16.909071 C339.078689,15.1713661 349.88306,15.3593443 350.368306,15.5123497 L347.406557,31.6347541 C342.060109,30.8128962 333.336612,32.9921311 329.474317,35.5888525 C325.295082,38.3975956 323.59235,41.088306 322.986885,44.3779235 L317.522404,72.5965027 L298.099454,72.5965027 L306.718033,26.5353005 C307.039344,25.0577049 307.384699,23.151694 307.749727,20.8194536 C308.11694,18.4893989 308.377049,16.3866667 308.538798,14.5243716 L326.995628,14.5243716 C326.947541,15.0970492 326.879781,15.5079781 326.798907,16.2445902 C326.718033,16.9877596 326.420765,19.4795628 326.337705,20.0238251 C326.337705,20.0238251 330.046995,17.8533333 333.225137,16.909071" id="Fill-9"></path>
            <path d="M397.176175,39.475847 C397.176175,35.9763934 396.061421,33.0605464 393.836284,30.7304918 C391.611148,28.3982514 388.47235,27.233224 384.426448,27.233224 C381.834098,27.233224 379.490929,27.7381421 377.388197,28.7479781 C375.281093,29.76 373.499672,31.1195628 372.043934,32.8288525 C370.586011,34.5403279 369.45377,36.5228415 368.645027,38.7763934 C367.834098,41.0321311 367.429727,43.4037158 367.429727,45.8889617 C367.429727,49.3884153 368.520437,52.2845902 370.708415,54.5774863 C372.894208,56.8703825 376.008962,58.0179235 380.057049,58.0179235 C382.647213,58.0179235 384.990383,57.5348634 387.097486,56.56 C389.200219,55.5895082 391.003497,54.2496175 392.500765,52.5359563 C393.995847,50.8288525 395.152131,48.8463388 395.958689,46.5906011 C396.767432,44.3370492 397.176175,41.9654645 397.176175,39.475847 M379.086557,73.4102732 C374.712787,73.4102732 370.647213,72.8288525 366.885464,71.6638251 C363.12153,70.4944262 359.88,68.8069945 357.171803,66.5884153 C354.459235,64.3742077 352.314973,61.6900546 350.736831,58.5425137 C349.158689,55.3949727 348.369617,51.8386885 348.369617,47.8714754 C348.369617,43.0518033 349.217705,38.4681967 350.920437,34.1097268 C352.618798,29.76 355.064699,25.9479781 358.262514,22.6845902 C361.462514,19.4190164 365.326995,16.8157377 369.858142,14.8703825 C374.391475,12.9293989 379.530273,11.9545355 385.278907,11.9545355 C389.72918,11.9545355 393.855956,12.5381421 397.661421,13.7053552 C401.464699,14.8703825 404.741202,16.5621858 407.495301,18.7763934 C410.245027,20.9949727 412.413333,23.6747541 413.991475,26.8222951 C415.569617,29.9742077 416.358689,33.528306 416.358689,37.4933333 C416.358689,42.391694 415.508415,47.0168306 413.807869,51.370929 C412.107322,55.7272131 409.637377,59.5326776 406.400219,62.8004372 C403.16306,66.0660109 399.257049,68.6496175 394.684372,70.5534426 C390.11388,72.4594536 384.911694,73.4102732 379.086557,73.4102732" id="Fill-11"></path>
            <path d="M423.534863,7.18295082 L424.236503,7.18295082 C425.23541,7.18295082 425.853989,7.14579235 426.094426,7.07147541 C426.337049,6.99715847 426.527213,6.86819672 426.667104,6.68459016 C426.804809,6.50098361 426.874754,6.29114754 426.874754,6.05508197 C426.874754,5.82775956 426.806995,5.62448087 426.671475,5.44743169 C426.535956,5.27038251 426.341421,5.14142077 426.090055,5.06491803 C425.838689,4.9884153 425.220109,4.94907104 424.236503,4.94907104 L423.534863,4.94907104 L423.534863,7.18295082 Z M421.805902,11.8299454 L421.805902,3.65071038 L423.534863,3.65071038 C425.154536,3.65071038 426.061639,3.65945355 426.256175,3.67256831 C426.831038,3.71846995 427.274754,3.82775956 427.59388,3.99825137 C427.91082,4.16874317 428.175301,4.43103825 428.389508,4.78295082 C428.60153,5.13486339 428.708634,5.52612022 428.708634,5.95453552 C428.708634,6.54469945 428.507541,7.04961749 428.105355,7.46928962 C427.703169,7.88896175 427.141421,8.14907104 426.413552,8.24961749 C426.673661,8.34360656 426.872568,8.44415301 427.010273,8.55562842 C427.150164,8.66710383 427.342514,8.87693989 427.587322,9.18513661 C427.65071,9.26601093 427.860546,9.59825137 428.214645,10.1796721 L429.220109,11.8299454 L427.08459,11.8299454 L426.372022,10.5031694 C425.891148,9.61136612 425.493333,9.04961749 425.178579,8.8179235 C424.863825,8.58622951 424.466011,8.47038251 423.985137,8.47038251 L423.534863,8.47038251 L423.534863,11.8299454 L421.805902,11.8299454 Z M425.440874,1.50863388 C424.337049,1.50863388 423.279126,1.77311475 422.267104,2.3042623 C421.255082,2.83322404 420.457268,3.59387978 419.873661,4.5884153 C419.290055,5.58076503 418.999344,6.61901639 418.999344,7.70535519 C418.999344,8.78513661 419.283497,9.81464481 419.851803,10.7938798 C420.422295,11.7731148 421.215738,12.5381421 422.236503,13.086776 C423.255082,13.6375956 424.323934,13.9130055 425.440874,13.9130055 C426.564372,13.9130055 427.63541,13.6375956 428.649617,13.086776 C429.666011,12.5381421 430.461639,11.7731148 431.032131,10.7938798 C431.604809,9.81464481 431.891148,8.78513661 431.891148,7.70535519 C431.891148,6.61901639 431.600437,5.58076503 431.016831,4.5884153 C430.433224,3.59387978 429.63541,2.83322404 428.619016,2.3042623 C427.602623,1.77311475 426.542514,1.50863388 425.440874,1.50863388 L425.440874,1.50863388 Z M425.429945,0.00043715847 C426.804809,0.00043715847 428.125027,0.330491803 429.388415,0.990601093 C430.653989,1.65071038 431.646339,2.59934426 432.369836,3.83213115 C433.091148,5.06710383 433.451803,6.35672131 433.451803,7.70535519 C433.451803,9.04743169 433.097705,10.3261202 432.389508,11.5436066 C431.681311,12.7610929 430.693333,13.7097268 429.425574,14.391694 C428.157814,15.0714754 426.826667,15.412459 425.429945,15.412459 C424.033224,15.412459 422.702077,15.0714754 421.434317,14.391694 C420.168743,13.7097268 419.178579,12.7610929 418.470383,11.5436066 C417.762186,10.3261202 417.408087,9.04743169 417.408087,7.70535519 C417.408087,6.35672131 417.768743,5.06710383 418.49224,3.83213115 C419.215738,2.59934426 420.208087,1.65071038 421.471475,0.990601093 C422.734863,0.330491803 424.055082,0.00043715847 425.429945,0.00043715847 L425.429945,0.00043715847 Z" id="Fill-13"></path>
            <polygon id="Fill-1" points="84.2655738 13.3975956 60.5672131 59.1790164 60.1715847 59.1790164 53.9814208 13.3975956 41.736612 13.3975956 17.3803279 59.1790164 17.1180328 59.1790164 12.7726776 13.3975956 0.00109289617 13.3975956 7.76939891 73.3429508 20.4098361 73.3429508 45.0284153 27.9418579 45.295082 27.9418579 51.6142077 73.3429508 64.2502732 73.3429508 97.168306 13.3975956"></polygon>
        </g>
    </g>
</svg>