<svg id="圖層_1" xmlns="http://www.w3.org/2000/svg" viewBox="0 0 378.915 90.797"><g fill="#3d9bd5"><path d="M11.165 12.192l3.799 41.667h.229l21.292-41.667H47.19l5.41 41.667h.346l20.717-41.667h11.28L56.167 66.749H45.119l-5.524-41.32h-.232l-21.521 41.32H6.791L0 12.192h11.165zM91.956 42.693a5.164 5.164 0 0 0-.118.98v.863c0 2.148.405 4.124 1.209 5.926a14.611 14.611 0 0 0 3.338 4.72c1.419 1.345 3.107 2.38 5.063 3.107 1.957.733 4.046 1.094 6.275 1.094 3.913 0 7.267-.785 10.071-2.359 2.798-1.574 5.159-3.549 7.076-5.929l6.331 5.985c-3.221 3.685-6.906 6.467-11.048 8.346-4.145 1.879-8.634 2.819-13.468 2.819-3.607 0-6.961-.538-10.071-1.611-3.107-1.076-5.793-2.649-8.056-4.72-2.263-2.071-4.028-4.603-5.295-7.595-1.264-2.992-1.898-6.408-1.898-10.244 0-4.526.807-8.822 2.417-12.89 1.611-4.068 3.836-7.614 6.674-10.646 2.841-3.033 6.217-5.428 10.13-7.193 3.913-1.765 8.133-2.649 12.662-2.649 6.98 0 12.504 1.901 16.572 5.697 4.068 3.799 6.102 9.113 6.102 15.941 0 1.076-.099 2.631-.288 4.662a48.915 48.915 0 0 1-.865 5.697H91.956zm33.722-7.827c.074-.535.133-1.11.173-1.725.037-.615.056-1.19.056-1.728 0-3.527-1.15-6.464-3.453-8.804-2.3-2.34-5.638-3.512-10.012-3.512-2.609 0-4.989.461-7.134 1.382-2.152.921-4.049 2.111-5.697 3.567a20.227 20.227 0 0 0-4.145 5.066c-1.113 1.917-1.898 3.836-2.359 5.753h32.571zM160.884 49.009h.247l25.733-36.72h12.253l-42.521 62.822c-1.471 2.452-2.9 4.637-4.288 6.556-1.389 1.919-2.899 3.554-4.535 4.904-2.526 2.084-5.568 3.732-8.824 3.968-3.564.258-6.951.195-10.412.258V81.11c4.345.1 10.184.46 13.477-2.75 1.718-1.675 3.512-4.064 5.394-7.168l5.76-9.804-12.748-49.099h12.131l8.333 36.72zM207.499 90.797h-16.98l13.796-78.323h16.133l-1.274 7.323h.319a20.871 20.871 0 0 1 7.482-6.316c3.007-1.519 6.277-2.28 9.817-2.28 3.466 0 6.579.567 9.341 1.699 2.759 1.132 5.094 2.705 7.003 4.72 1.91 2.018 3.361 4.424 4.352 7.217.989 2.796 1.485 5.821 1.485 9.076 0 4.529-.727 8.791-2.175 12.787-1.451 3.999-3.486 7.482-6.103 10.455a29.313 29.313 0 0 1-9.286 7.058c-3.574 1.733-7.482 2.6-11.729 2.6-3.891 0-7.251-.727-10.082-2.175-2.83-1.448-4.954-3.412-6.368-5.889h-.211l-5.52 32.048zm34.432-56.758a15.381 15.381 0 0 0-.326-1.742c-.716-2.883-2.871-5.088-5.611-6.213-5.442-2.236-11.528.726-14.642 5.346-4.996 7.41-3.778 21.273 7.663 20.92 8.955-.277 13.968-10.168 12.916-18.311zM291.298 15.389c5.117-1.582 14.562-1.41 14.986-1.271l-2.589 14.672c-4.674-.748-12.3 1.236-15.676 3.599-3.653 2.557-5.141 5.005-5.67 8l-4.777 25.681h-16.98l7.534-41.921c.282-1.345.584-3.078.904-5.202.319-2.121.547-4.033.69-5.729h16.133c-.041.521-.1.896-.171 1.566-.071.675-.331 2.944-.403 3.44-.001 0 3.241-1.976 6.019-2.835zM331.389 66.811c-3.822 0-7.377-.53-10.666-1.59-3.289-1.063-6.123-2.6-8.491-4.618-2.371-2.015-4.244-4.458-5.624-7.323s-2.069-6.103-2.069-9.711c0-4.387.741-8.56 2.229-12.525 1.485-3.959 3.623-7.428 6.419-10.398 2.796-2.973 6.174-5.342 10.136-7.112 3.962-1.767 8.454-2.654 13.479-2.654 3.891 0 7.499.53 10.826 1.593 3.324 1.06 6.188 2.6 8.597 4.615a21.81 21.81 0 0 1 5.678 7.323c1.38 2.868 2.069 6.103 2.069 9.711 0 4.458-.744 8.668-2.229 12.63-1.488 3.965-3.646 7.428-6.476 10.401s-6.245 5.325-10.241 7.058c-3.997 1.733-8.543 2.6-13.637 2.6zm15.814-30.884c0-3.184-.975-5.838-2.919-7.958-1.947-2.124-4.689-3.184-8.226-3.184-2.266 0-4.316.459-6.154 1.38a14.13 14.13 0 0 0-4.672 3.714c-1.274 1.556-2.263 3.361-2.97 5.413-.71 2.052-1.063 4.21-1.063 6.473 0 3.184.955 5.82 2.867 7.907 1.91 2.087 4.632 3.13 8.172 3.13 2.263 0 4.313-.439 6.154-1.326a14.027 14.027 0 0 0 4.723-3.663c1.308-1.554 2.317-3.358 3.024-5.41a19.713 19.713 0 0 0 1.064-6.476z"/></g><path d="M371.903 0c1.202 0 2.355.301 3.46.902a6.504 6.504 0 0 1 2.605 2.587c.631 1.123.947 2.298.947 3.524 0 1.221-.31 2.385-.93 3.493a6.601 6.601 0 0 1-2.591 2.591c-1.107.619-2.271.929-3.492.929s-2.386-.31-3.493-.929a6.614 6.614 0 0 1-2.591-2.591c-.619-1.108-.93-2.272-.93-3.493 0-1.227.316-2.401.948-3.524A6.527 6.527 0 0 1 368.44.902C369.546.301 370.699 0 371.903 0zm.008 1.373a5.71 5.71 0 0 0-2.774.724 5.253 5.253 0 0 0-2.092 2.078 5.692 5.692 0 0 0-.765 2.838c0 .983.249 1.92.746 2.811a5.332 5.332 0 0 0 2.083 2.087c.892.5 1.825.75 2.802.75.982 0 1.918-.25 2.806-.75a5.365 5.365 0 0 0 2.083-2.087 5.652 5.652 0 0 0 .751-2.811c0-.988-.255-1.935-.765-2.838a5.24 5.24 0 0 0-2.097-2.078 5.734 5.734 0 0 0-2.778-.724zm-3.176 9.394V3.323h1.511c1.416 0 2.209.006 2.38.019.501.043.89.142 1.168.297.277.156.509.394.695.714.187.32.279.676.279 1.066 0 .537-.176.997-.526 1.378-.352.381-.844.618-1.479.709.226.086.4.179.522.279.122.101.29.292.504.572.055.073.238.375.549.906l.879 1.502h-1.867l-.623-1.208c-.421-.811-.769-1.323-1.043-1.534-.275-.21-.623-.315-1.044-.315h-.393v3.058h-1.512zm1.51-4.23h.613c.873 0 1.414-.034 1.625-.101a.948.948 0 0 0 .682-.924.916.916 0 0 0-.178-.554.977.977 0 0 0-.509-.348c-.22-.07-.76-.105-1.62-.105h-.613v2.032z" fill="#3d9bd5"/></svg>