<svg width="434" height="100" viewBox="0 0 434 100" xmlns="http://www.w3.org/2000/svg"><title>Group</title><g id="Page-1" fill="none" fill-rule="evenodd"><g id="Group" fill="#FFF"><path d="M143.767 38.31c.085-.587.153-1.22.199-1.894.041-.676.063-1.308.063-1.9 0-3.875-1.316-7.102-3.95-9.672-2.631-2.573-6.45-3.86-11.453-3.86-2.986 0-5.707.507-8.162 1.519-2.46 1.012-4.634 2.32-6.518 3.92a22.476 22.476 0 0 0-4.74 5.566c-1.275 2.107-2.171 4.217-2.698 6.322h37.259zm-38.575 8.602c-.09.424-.135.78-.135 1.075v.949c0 2.36.463 4.53 1.383 6.511a16.104 16.104 0 0 0 3.819 5.187c1.624 1.476 3.554 2.614 5.792 3.412 2.238.807 4.627 1.202 7.178 1.202 4.477 0 8.313-.86 11.522-2.59 3.2-1.729 5.901-3.9 8.094-6.516l7.241 6.577c-3.685 4.048-7.9 7.104-12.638 9.17-4.741 2.065-9.876 3.097-15.408 3.097-4.127 0-7.963-.59-11.519-1.768-3.554-1.183-6.627-2.912-9.215-5.187-2.588-2.276-4.608-5.058-6.057-8.346-1.447-3.287-2.173-7.04-2.173-11.256 0-4.973.923-9.694 2.765-14.164 1.843-4.47 4.39-8.365 7.635-11.696 3.25-3.334 7.11-5.966 11.587-7.904 4.479-1.941 9.305-2.912 14.485-2.912 7.985 0 14.304 2.09 18.958 6.26 4.653 4.175 6.979 10.013 6.979 17.515 0 1.183-.111 2.892-.328 5.124-.223 2.233-.55 4.319-.99 6.26h-48.975z" id="Fill-2"/><path d="M184.04 53.85h.282l29.438-40.347h14.016l-48.64 69.027c-1.684 2.696-3.319 5.096-4.908 7.205-1.587 2.107-3.316 3.906-5.187 5.388-2.89 2.29-6.37 4.1-10.094 4.36-4.078.282-7.952.215-11.912.282l.002-10.642c4.968.11 11.648.505 15.416-3.023 1.965-1.84 4.018-4.466 6.17-7.876l6.589-10.773-14.582-53.948h13.878l9.532 40.348z" id="Fill-4"/><path d="M276.752 37.402c-.088-.65-.212-1.29-.374-1.915-.82-3.167-3.283-5.59-6.418-6.826-6.225-2.457-13.186.798-16.75 5.873-5.715 8.144-4.32 23.375 8.766 22.986 10.247-.304 15.98-11.172 14.776-20.118zm-39.388 62.365H217.94l15.781-86.061h18.455l-1.456 8.045h.365c2.267-2.953 5.12-5.267 8.56-6.94 3.438-1.67 7.178-2.504 11.228-2.504 3.965 0 7.526.623 10.686 1.866 3.157 1.244 5.826 2.973 8.011 5.187 2.184 2.217 3.845 4.86 4.98 7.93 1.13 3.071 1.698 6.394 1.698 9.972 0 4.977-.83 9.659-2.487 14.05-1.662 4.394-3.99 8.22-6.982 11.489-2.997 3.265-6.538 5.849-10.623 7.753-4.09 1.906-8.56 2.856-13.418 2.856-4.45 0-8.296-.797-11.533-2.389-3.237-1.59-5.667-3.748-7.285-6.47h-.24l-6.317 35.216z" id="Fill-6"/><path d="M333.225 16.91c5.854-1.739 16.658-1.55 17.143-1.398l-2.961 16.123c-5.347-.822-14.07 1.357-17.933 3.954-4.179 2.809-5.882 5.5-6.487 8.789l-5.465 28.219H298.1l8.619-46.062c.321-1.477.667-3.383 1.032-5.716a91.81 91.81 0 0 0 .789-6.295h18.457c-.048.573-.116.984-.197 1.72-.081.744-.378 3.236-.461 3.78 0 0 3.709-2.17 6.887-3.115" id="Fill-9"/><path d="M397.176 39.476c0-3.5-1.115-6.415-3.34-8.746-2.225-2.332-5.364-3.497-9.41-3.497-2.592 0-4.935.505-7.038 1.515-2.107 1.012-3.888 2.372-5.344 4.08-1.458 1.712-2.59 3.695-3.399 5.948-.81 2.256-1.215 4.628-1.215 7.113 0 3.5 1.09 6.396 3.278 8.688 2.186 2.293 5.301 3.44 9.349 3.44 2.59 0 4.933-.482 7.04-1.457a15.977 15.977 0 0 0 5.404-4.024c1.495-1.707 2.651-3.69 3.458-5.945a20.905 20.905 0 0 0 1.217-7.115m-18.09 33.934c-4.373 0-8.439-.581-12.2-1.746-3.764-1.17-7.006-2.857-9.714-5.076a24.363 24.363 0 0 1-6.435-8.045c-1.578-3.148-2.367-6.704-2.367-10.672 0-4.82.848-9.403 2.55-13.761 1.699-4.35 4.145-8.162 7.343-11.425 3.2-3.266 7.064-5.87 11.595-7.815 4.533-1.94 9.672-2.915 15.42-2.915 4.451 0 8.578.583 12.383 1.75 3.804 1.165 7.08 2.857 9.834 5.071a24.122 24.122 0 0 1 6.496 8.046c1.579 3.152 2.368 6.706 2.368 10.671 0 4.899-.85 9.524-2.551 13.878-1.7 4.356-4.17 8.162-7.408 11.43-3.237 3.265-7.143 5.849-11.716 7.752-4.57 1.906-9.772 2.857-15.597 2.857" id="Fill-11"/><path d="M423.535 7.183h.702c.998 0 1.617-.037 1.857-.112.243-.074.433-.203.573-.386.138-.184.208-.394.208-.63a.974.974 0 0 0-.204-.608 1.119 1.119 0 0 0-.58-.382c-.252-.077-.87-.116-1.854-.116h-.702v2.234zm-1.73 4.647V3.65h1.73c1.62 0 2.527.01 2.721.023.575.045 1.019.155 1.338.325.317.17.581.433.796.785.212.352.319.743.319 1.172a2.11 2.11 0 0 1-.604 1.514c-.402.42-.964.68-1.691.78.26.095.459.195.596.307.14.111.333.32.577.63.064.08.274.412.628.994l1.005 1.65h-2.135l-.713-1.327c-.48-.892-.879-1.453-1.193-1.685-.315-.232-.713-.348-1.194-.348h-.45v3.36h-1.73zm3.636-10.321a6.74 6.74 0 0 0-3.174.795 5.886 5.886 0 0 0-2.393 2.284c-.584.993-.875 2.031-.875 3.117 0 1.08.284 2.11.853 3.089a5.977 5.977 0 0 0 2.385 2.293 6.632 6.632 0 0 0 6.413 0 6 6 0 0 0 2.382-2.293c.573-.98.86-2.009.86-3.089 0-1.086-.292-2.124-.875-3.117a5.87 5.87 0 0 0-2.398-2.284 6.776 6.776 0 0 0-3.178-.795zM425.43 0a8.44 8.44 0 0 1 3.958.99 7.319 7.319 0 0 1 2.982 2.842c.721 1.235 1.082 2.525 1.082 3.873 0 1.342-.354 2.621-1.062 3.839a7.423 7.423 0 0 1-2.964 2.848 8.338 8.338 0 0 1-3.996 1.02 8.338 8.338 0 0 1-3.996-1.02c-1.265-.682-2.255-1.63-2.964-2.848-.708-1.218-1.062-2.497-1.062-3.839 0-1.348.36-2.638 1.084-3.873a7.326 7.326 0 0 1 2.98-2.841A8.44 8.44 0 0 1 425.43 0z" id="Fill-13"/><path id="Fill-1" d="M84.266 13.398L60.567 59.179h-.395l-6.19-45.781H41.736L17.38 59.179h-.262l-4.345-45.781H0L7.77 73.343h12.64l24.62-45.401h.266l6.32 45.401H64.25l32.918-59.945z"/></g></g></svg>